<svg xmlns="http://www.w3.org/2000/svg" version="1.1" xmlns:xlink="http://www.w3.org/1999/xlink" xmlns:svgjs="http://svgjs.dev/svgjs" width="700" height="350" preserveAspectRatio="none" viewBox="0 0 700 350"><g mask="url(&quot;#SvgjsMask1067&quot;)" fill="none"><path d="M66.68 2.94L86.53 2.94L86.53 25L66.68 25z" fill="rgba(144, 90, 35, 1)"></path><path d="M525.79 241.34 a13.31 13.31 0 1 0 26.62 0 a13.31 13.31 0 1 0 -26.62 0z" fill="rgba(45, 114, 33, 1)"></path><path d="M281.04 94.07L303.35 94.07L303.35 116.38L281.04 116.38z" stroke="#e73635"></path><path d="M608.2 175.15L624.16 175.15L624.16 191.11L608.2 191.11z" fill="rgba(144, 90, 35, 1)"></path><path d="M106.79 128.43L110.83 128.43L110.83 132.47L106.79 132.47z" stroke="rgba(144, 90, 35, 1)"></path><path d="M21.54 100.11L52.95 100.11L52.95 127.2L21.54 127.2z" stroke="#e73635"></path><path d="M276.37 116.08a18.91 18.91 0 1 0 35.82-12.12z" fill="rgba(45, 114, 33, 1)"></path><path d="M571.13 32.96a2.69 2.69 0 1 0-3.41 4.17z" stroke="rgba(144, 90, 35, 1)"></path><path d="M683.17 35.89L697.91 35.89L697.91 50.63L683.17 50.63z" stroke="#e73635"></path><path d="M303.08 311.18L323.02 311.18L323.02 331.12L303.08 331.12z" stroke="rgba(144, 90, 35, 1)"></path><path d="M563 335.42L591.17 335.42L591.17 363.59L563 363.59z" fill="rgba(144, 90, 35, 1)"></path><path d="M486.61 201.27 a23.76 23.76 0 1 0 47.52 0 a23.76 23.76 0 1 0 -47.52 0z" fill="#e73635"></path><path d="M447.59 124.24L463.27 124.24L463.27 139.92L447.59 139.92z" fill="#e73635"></path><path d="M413.57 245.94 a3.3 3.3 0 1 0 6.6 0 a3.3 3.3 0 1 0 -6.6 0z" fill="rgba(144, 90, 35, 1)"></path><path d="M598.06 332.54 a12.01 12.01 0 1 0 24.02 0 a12.01 12.01 0 1 0 -24.02 0z" fill="rgba(45, 114, 33, 1)"></path><path d="M264.17 166.05 a29.24 29.24 0 1 0 58.48 0 a29.24 29.24 0 1 0 -58.48 0z" fill="rgba(45, 114, 33, 1)"></path><path d="M599.02 143.23L606.59 143.23L606.59 150.8L599.02 150.8z" fill="rgba(144, 90, 35, 1)"></path><path d="M131.4 40.93L147.2 40.93L147.2 56.73L131.4 56.73z" fill="rgba(45, 114, 33, 1)"></path><path d="M690.21 196.78L698.75 196.78L698.75 205.32L690.21 205.32z" stroke="rgba(45, 114, 33, 1)"></path><path d="M62.68 134.08 a15.73 15.73 0 1 0 31.46 0 a15.73 15.73 0 1 0 -31.46 0z" fill="rgba(45, 114, 33, 1)"></path><path d="M404.91 223.45a15.82 15.82 0 1 0-30.24-9.3z" stroke="#e73635"></path><path d="M544.06 219.66 a28.18 28.18 0 1 0 56.36 0 a28.18 28.18 0 1 0 -56.36 0z" stroke="#e73635"></path><path d="M682.05 124.4L691.68 124.4L691.68 134.03L682.05 134.03z" stroke="rgba(144, 90, 35, 1)"></path><path d="M160.9 206.2 a19.2 19.2 0 1 0 38.4 0 a19.2 19.2 0 1 0 -38.4 0z" stroke="rgba(45, 114, 33, 1)"></path><path d="M376.09 47.21a21.68 21.68 0 1 0 43.08-4.9z" fill="rgba(144, 90, 35, 1)"></path></g><defs><mask id="SvgjsMask1067"><rect width="700" height="350" fill="#ffffff"></rect></mask></defs></svg>